<svg xmlns="http://www.w3.org/2000/svg" xmlns:xlink="http://www.w3.org/1999/xlink" width="86" height="30" viewBox="0 0 86 30"><defs><clipPath id="b"><rect width="86" height="30"/></clipPath></defs><g id="a" clip-path="url(#b)"><path d="M131.8,35.466c0-.937.344-1.594.86-1.594.459-.047.86.563.889,1.313a2.368,2.368,0,0,1-.115.8,1.644,1.644,0,0,0,1.29.563c.889,0,1.462-.656,1.462-1.781A2.331,2.331,0,0,0,134.7,32.7c-1.52-.891-2.581-1.688-2.581-4.125,0-2.109,1.061-3.75,2.7-3.75a2.752,2.752,0,0,1,2.7,2.859c0,.938-.373,1.5-.832,1.5-.459.047-.86-.516-.889-1.313v-.047a2,2,0,0,1,.086-.609,1.717,1.717,0,0,0-1.09-.422c-.8,0-1.29.656-1.29,1.641,0,1.078.688,1.594,1.491,2.062,1.463.844,2.552,1.688,2.552,4.125,0,2.531-1.2,3.938-2.868,3.938a3.056,3.056,0,0,1-2.868-3.094Zm7.57,1.828a3.7,3.7,0,0,1-.172-1.406V31.341h-1.061V29.466H139.2V27.591l1.348-.938v2.812h1.663v1.875h-1.635v4.125a2.33,2.33,0,0,0,.086.656c.115.281.344.469.574.422a1.931,1.931,0,0,0,1.061-.469l-.115,1.875a2.1,2.1,0,0,1-1.29.516A1.509,1.509,0,0,1,139.37,37.294Zm3.527-3.375c0-2.438,1.118-4.594,2.9-4.594,1.807,0,2.9,2.109,2.9,4.594,0,2.437-1.118,4.594-2.9,4.594-1.807-.047-2.9-2.156-2.9-4.594Zm4.387,0c0-1.594-.631-2.719-1.491-2.719-.889,0-1.491,1.125-1.491,2.719s.631,2.719,1.491,2.719S147.284,35.513,147.284,33.919Zm6.882-3.141c0,.75-.344,1.359-.8,1.359-.344,0-.66-.281-.8-.8a3.431,3.431,0,0,0-1.09,1.687V36.5h.946v1.828h-3.1V36.5h.8V31.341h-.8V29.466h2.093v2.016c.459-1.172,1.032-2.156,1.72-2.156.717,0,1.032.7,1.032,1.453Zm1.893,11.531a1.306,1.306,0,0,1-1.176-1.406c-.029-.563.229-1.078.6-1.125h.086c.258,0,.516.234.6.656a.988.988,0,0,0,.43-.516c.086-.234.172-.422.258-.7l.4-1.406-1.921-6.516h-.66V29.419h2.81v1.734h-.8l1.262,4.641,1.262-4.641h-.832V29.419h2.782v1.875h-.66l-2.552,8.766a6.374,6.374,0,0,1-.43,1.078,1.759,1.759,0,0,1-1.462,1.172Zm7.112-4.828-.287.891h-.918V25.435h-.832V23.56h2.179v6.891a2.009,2.009,0,0,1,1.606-1.125c1.434,0,2.524,1.875,2.524,4.547,0,2.578-1.147,4.594-2.61,4.594a2.06,2.06,0,0,1-1.663-.984Zm2.868-3.609c0-1.687-.631-2.672-1.434-2.672a1.6,1.6,0,0,0-1.29.891v3.8a2.007,2.007,0,0,0,1.29.7C165.379,36.591,166.038,35.654,166.038,33.872Zm1.95,2.625h.832V25.435h-.832V23.56H170.2V36.5h.8v1.828h-3.011V36.5Zm3.584-2.578c0-2.438,1.118-4.594,2.9-4.594,1.807,0,2.9,2.109,2.9,4.594,0,2.437-1.118,4.594-2.9,4.594-1.807-.047-2.9-2.156-2.9-4.594Zm4.388,0c0-1.594-.631-2.719-1.491-2.719-.889,0-1.491,1.125-1.491,2.719s.631,2.719,1.491,2.719S175.96,35.513,175.96,33.919Zm2.151-.094c0-2.484,1.233-4.5,2.753-4.5,1.491,0,2.466,1.594,2.466,2.953.029.75-.315,1.453-.774,1.5h-.086c-.459,0-.8-.609-.832-1.313a1.637,1.637,0,0,1,.172-.75,1.055,1.055,0,0,0-.975-.609c-.631,0-1.377.844-1.377,2.766,0,1.688.8,2.766,1.749,2.766a2.718,2.718,0,0,0,1.921-.937l-.115,1.969a2.525,2.525,0,0,1-1.921.8c-1.692,0-2.982-1.781-2.982-4.641Zm5.936,2.672h.8V25.435h-.8V23.56H186.2v9.891l1.577-2.2h-.746V29.513h3.212v1.875h-1l-1.262,1.734,1.376,3.375h.889v1.875h-1.692L187,34.388l-.774,1.078v1.125h.688v1.781h-2.839V36.5Zm10.811-3.844c-.43,0-.746-.422-.746-1.078a1.457,1.457,0,0,1,.029-.375,1.644,1.644,0,0,0-.774-.234.861.861,0,0,0-.918.891c0,.516.315.75,1.147,1.125,1.29.563,2.065,1.078,2.065,2.672,0,1.875-1.061,2.859-2.294,2.859a2.6,2.6,0,0,1-2.093-1.078,2.169,2.169,0,0,1-.315-1.172c0-.656.315-1.172.688-1.172h.029c.373-.047.717.469.717,1.078v.094a1.652,1.652,0,0,1-.029.375,1.859,1.859,0,0,0,.975.281.9.9,0,0,0,1-.938c0-.422-.229-.7-1.061-1.078-1.491-.656-2.122-1.219-2.122-2.719,0-1.359.688-2.812,2.208-2.812a2.408,2.408,0,0,1,1.835.984,2,2,0,0,1,.287,1.125c.057.656-.229,1.172-.631,1.172Z" transform="translate(-109.661 -17.091)"/><g transform="translate(0 0)"><ellipse cx="9.176" cy="15" rx="9.176" ry="15" transform="translate(0 0)" fill="#ffe121"/><path d="M36.9,25.95V36.075c-1.721,0-3.1-2.25-3.1-5.063S35.18,25.95,36.9,25.95Zm.8,15.75V31.575c1.721,0,3.1,2.25,3.1,5.063,0,2.767-1.332,4.99-3.014,5.061Zm1.462-15.75c.8,0,1.462,1.078,1.462,2.391s-.66,2.391-1.462,2.391S37.7,29.653,37.7,28.341,38.363,25.95,39.166,25.95ZM35.438,36.919c.8,0,1.462,1.078,1.462,2.391s-.66,2.391-1.462,2.391-1.462-1.078-1.462-2.391S34.635,36.919,35.438,36.919Z" transform="translate(-28.125 -18.825)"/></g></g></svg>