<svg xmlns="http://www.w3.org/2000/svg" xmlns:xlink="http://www.w3.org/1999/xlink" width="115" height="30" viewBox="0 0 115 30"><defs><clipPath id="b"><rect width="115" height="30"/></clipPath></defs><g id="a" clip-path="url(#b)"><g transform="translate(0)"><path d="M3.6,14.892a4.764,4.764,0,0,1,2.352-.946,12.542,12.542,0,0,1,.238-1.452,10.082,10.082,0,0,1-1.612-2.027,6.769,6.769,0,0,1,2.247.169,7.575,7.575,0,0,1,.793-1.351,10.1,10.1,0,0,1-.74-2.331A7.205,7.205,0,0,1,8.543,8.238a8.425,8.425,0,0,1,1.242-.946,14.525,14.525,0,0,1,.159-2.331,7.646,7.646,0,0,1,1.031,1.824,5.417,5.417,0,0,1,1.665-.169,11.685,11.685,0,0,1,.687-1.79,12.894,12.894,0,0,1,.423,1.959,6.338,6.338,0,0,1,1.665.743,5.6,5.6,0,0,1,2.564-1.621,11.065,11.065,0,0,0-.766-4.391A8.437,8.437,0,0,0,15.282.672a8.4,8.4,0,0,0-1.718,1.588A10.168,10.168,0,0,0,12.216.233,6.98,6.98,0,0,0,10.472.4,11.513,11.513,0,0,0,9.388,2.732,6.664,6.664,0,0,0,7.274,1.584,12.8,12.8,0,0,0,5.9,2.5a14.292,14.292,0,0,0-.185,2.736,5.863,5.863,0,0,0-2.326-.1,13.915,13.915,0,0,0-.846,1.317,10.172,10.172,0,0,0,.634,3.175A6.374,6.374,0,0,0,.8,10.974c-.106.439-.185.912-.264,1.351a9.258,9.258,0,0,0,1.692,2.533,10.186,10.186,0,0,0-1.771,2.7,12.54,12.54,0,0,0,.238,1.452H.719A9.8,9.8,0,0,1,2.86,15.466a7.539,7.539,0,0,0,3.2,1.723c-.026-.3-.079-.608-.106-1.013A7.421,7.421,0,0,1,3.6,14.892Zm13.162-10.1a7.035,7.035,0,0,0-1.929,1.419,14.473,14.473,0,0,0-.687-2.668A7.86,7.86,0,0,1,16,1.82,8.153,8.153,0,0,1,16.762,4.793ZM12.824,3.374a10.765,10.765,0,0,0-1.084,2.4,8.817,8.817,0,0,0-1.454-2.229,9.621,9.621,0,0,1,1.084-2.4A8.465,8.465,0,0,1,12.824,3.374ZM9.1,4.016a13.485,13.485,0,0,0-.317,2.9A7.014,7.014,0,0,0,6.719,5.569,10.091,10.091,0,0,1,6.851,2.8,5.27,5.27,0,0,1,9.1,4.016ZM6.666,9.488A6.918,6.918,0,0,0,4.1,9.42a9.3,9.3,0,0,1-.661-3.074,5.714,5.714,0,0,1,2.432.169A12.331,12.331,0,0,0,6.666,9.488ZM3.627,10.636a10.2,10.2,0,0,0,1.718,2.432,5.856,5.856,0,0,0-2.458,1.216,8.2,8.2,0,0,1-1.639-2.364A5.522,5.522,0,0,1,3.627,10.636Z" transform="translate(-0.354 -0.165)" fill="#fff"/><path d="M11.578.106l.223,0h.088a10.193,10.193,0,0,1,3.072.44l.07.022-.009.006L15.1.6a7.978,7.978,0,0,1,1.783.81l.005.013L17,1.5l.222.158.129.094A19.59,19.59,0,0,1,18.99,3.085l.123.114a9.974,9.974,0,0,1,.8.834,1.667,1.667,0,0,1,.137,2.009l-.038.058c-.129.191-.474.656-.864,1.166l-.217.282-.2.255-.3.376a8.052,8.052,0,0,1-.669.777c-.5.306-.9.2-1.355-.289l-.049-.054A6.307,6.307,0,0,0,15.074,7.5l0-.037-.023,0a6.281,6.281,0,0,0-1.614-.727l-.018.021a6.376,6.376,0,0,0-1.106-.2L12.3,6.547l-.018.016a5.377,5.377,0,0,0-1.63.161l0,.007a4.285,4.285,0,0,0-.818.3l-.073.036a1.992,1.992,0,0,0-.285.164l-.023-.012-.009.02a8.317,8.317,0,0,0-1.238.943H8.172l-.048.048A7.813,7.813,0,0,0,7.6,8.81l-.249.312-.039.046-.02.02L7.286,9.2l0,.024a7.561,7.561,0,0,0-.775,1.312l.012.032-.032.071a9.752,9.752,0,0,0-.6,1.742l0,.027-.027.017-.043.2a12.432,12.432,0,0,0-.193,1.241l-.013.016.013.018a10.424,10.424,0,0,0,0,2.182l0,.006c.008.124.018.238.033.372l.049.41c.01.088.018.159.024.228l.029.005.023.027c1.156,5.944,6.652,8.246,10.475,4.405.61-.6,1.039-.718,1.48-.423a3.564,3.564,0,0,1,.777.828l.566.76c.19.253.361.474.536.69l.088.108c.008.011.2.268.267.36a1.67,1.67,0,0,1-.029,2.188A9.737,9.737,0,0,1,9.021,29.6C4.793,28.28,1.5,24.436.365,18.966l.008-.014-.008.006H.339l-.027-.026a11.515,11.515,0,0,1-.235-1.48l.055-.115-.005-.045A19.329,19.329,0,0,1,.2,12.323l-.043-.1.111-.615.011-.061c.049-.26.094-.477.153-.7l.025-.022.039-.163a17.865,17.865,0,0,1,1.6-4.147l.076-.14,0-.045a12.526,12.526,0,0,1,.865-1.332L3.1,5l.06-.082q.2-.268.4-.512L3.7,4.238A12.206,12.206,0,0,1,5.367,2.588l.139-.112L5.518,2.4l.013-.023a11.625,11.625,0,0,1,1.4-.916l.061.021.081-.045A10.646,10.646,0,0,1,9.807.383L10,.341l.09-.019.028-.045A7.2,7.2,0,0,1,11.578.106ZM2.266,15.677l-.014.015A9.93,9.93,0,0,0,.517,18.614l-.064.161L.4,18.921h0l.056-.144A10.57,10.57,0,0,1,2.266,15.677ZM11.675.177h-.1a7.631,7.631,0,0,0-1.384.147l-.027.044a11.451,11.451,0,0,0-1.08,2.323l-.04.016a6.355,6.355,0,0,0-1.967-1.1L6.967,1.57l-.008.005a11.337,11.337,0,0,0-1.276.846l-.091.07-.023.15A14.255,14.255,0,0,0,5.41,4.97l0,.2-.033.036A5.841,5.841,0,0,0,3.2,5.089L3.1,5.1l-.024.034c-.239.334-.472.691-.7,1.059L2.3,6.326l-.055.1.01.175a10.082,10.082,0,0,0,.559,2.754l.059.16-.019.05a6.563,6.563,0,0,0-2.37,1.346l-.025.021L.447,11c-.032.141-.064.292-.1.461l-.032.17-.073.4c-.014.076-.032.164-.041.189l.006.013L.22,12.17l.037.082a9.216,9.216,0,0,0,1.685,2.524v.055A8.9,8.9,0,0,0,.2,17.522l-.039.092-.013-.1-.009-.076-.015.032a12.432,12.432,0,0,0,.193,1.241l.035.16L.4,18.743a9.865,9.865,0,0,1,2-3.3l.089-.091h.033l.04.034h.013a8.543,8.543,0,0,0,1.027.771,8.161,8.161,0,0,0,1,.534,5.9,5.9,0,0,0,1.035.365l.037.007-.022-.2-.027-.22c-.019-.154-.032-.277-.042-.4l-.007-.087-.026-.008a7.463,7.463,0,0,1-2.318-1.275v-.095a4.706,4.706,0,0,1,2.272-.94l.069-.008.021-.183c.034-.281.077-.555.129-.831l.041-.207.04-.185-.1-.1-.078-.079a7.073,7.073,0,0,1-.949-1.117c-.13-.18-.258-.369-.384-.572L4.2,10.4l.02-.057a6.161,6.161,0,0,1,.625-.033,6.83,6.83,0,0,1,1.613.192l.045-.1A7.557,7.557,0,0,1,7.154,9.3l.075-.106-.048-.108a9.827,9.827,0,0,1-.651-2.04L6.5,6.873,6.483,6.8l.03.016.02-.022A6.494,6.494,0,0,1,8.206,8.087h0l.066-.06a8.051,8.051,0,0,1,.89-.689l.126-.084L9.4,7.181v-.1a13.946,13.946,0,0,1,.131-2.027l.028-.19.047-.018.005.007.021-.007a7.434,7.434,0,0,1,1.023,1.8l.109-.026a5.462,5.462,0,0,1,1.215-.141l.152,0,.132.006.026-.09a11.677,11.677,0,0,1,.59-1.542l.1-.2L13,4.721l.028,0a10.41,10.41,0,0,1,.421,1.951l.108.032a6.329,6.329,0,0,1,1.392.621l.112.069.069-.073a5.524,5.524,0,0,1,2.38-1.5l.092-.031V5.643q0-.171-.006-.337a25.658,25.658,0,0,0-.554-3.09l-.085-.362-.083-.34-.022-.055A8.744,8.744,0,0,0,14.96.62l.008-.006A8.354,8.354,0,0,0,13.256,2.2l-.023,0,0,0-.042-.006A10.525,10.525,0,0,0,11.862.179ZM3.294,10.512l.029.016a9.852,9.852,0,0,0,1.594,2.3l.167.18-.063.01-.1.018L5,13.014a5.609,5.609,0,0,0-1.046.342,6.422,6.422,0,0,0-1.375.869H2.516A8.237,8.237,0,0,1,.87,11.848L.878,11.8a5.514,5.514,0,0,1,2.389-1.29l.009,0ZM5.525,6.391l.021.028a12.275,12.275,0,0,0,.729,2.81l.088.216-.029-.006,0,.006-.056-.012A6.262,6.262,0,0,0,3.726,9.4L3.7,9.38a9.511,9.511,0,0,1-.664-3.088l.024-.037h.005l.022-.033A5.716,5.716,0,0,1,5.525,6.391ZM6.5,2.676A5.279,5.279,0,0,1,8.759,3.9l.011.039a13.275,13.275,0,0,0-.316,2.9L8.41,6.86,8.4,6.85l-.015.01A6.88,6.88,0,0,0,6.33,5.514l-.019-.031A11.413,11.413,0,0,1,6.39,3.209L6.4,3.145l-.009.064q.01-.072.02-.144t.024-.155l0-.03q.015-.089.031-.178ZM14.5,6.15l-.044-.02h0l0-.017-.031-.177a14.152,14.152,0,0,0-.651-2.467l0-.039A6.689,6.689,0,0,1,15.626,1.7l0,0,.018.006.017.006A7.965,7.965,0,0,1,16.436,4.7l-.005.011-.012.025A7.751,7.751,0,0,0,14.5,6.145l0,0ZM11.034,1.028a7.968,7.968,0,0,1,1.46,2.239l0,.036v0A10.678,10.678,0,0,0,11.412,5.7l-.011.035-.01.032v0L11.362,5.7l0,0-.066-.136A8.552,8.552,0,0,0,9.915,3.514l-.008-.039,0-.014,0-.021A9.59,9.59,0,0,1,11,1.033Z" transform="translate(0 -0.076)" fill="#43b02a"/><path d="M19.4,70.828a7.111,7.111,0,0,0,5.26-2.466,12.677,12.677,0,0,1,1.48,1.891.5.5,0,0,1,.079.169c-4.81,5.37-12.977,4.594-16.836-4.695a9.2,9.2,0,0,1,.767-2.162,4.733,4.733,0,0,0,1.8.574C12.792,67.011,15.752,70.828,19.4,70.828Z" transform="translate(-7.3 -45.529)" fill="#fff"/><path d="M109.719.034C116.22.034,121.4,6.722,121.4,15s-5.207,14.9-11.683,14.9S98.065,23.306,98.065,15c0-8.226,5.051-14.83,11.459-14.961Zm0,24.488c4.1,0,7.48-4.29,7.48-9.491s-3.382-9.593-7.48-9.593-7.427,4.357-7.427,9.593c0,5.183,3.264,9.406,7.3,9.49ZM124.917.777a.7.7,0,0,1,.606-.743h.82l13.508,18.341h.026V1.25a.717.717,0,0,1,.607-.777h2.988a.739.739,0,0,1,.609.777V29.183a.7.7,0,0,1-.609.743H142.7l-13.585-19.05h-.025V28.71a.719.719,0,0,1-.609.777h-2.961a.739.739,0,0,1-.606-.777ZM157.4.473c6.264,0,11.391,6.519,11.391,14.49,0,8.039-5.127,14.558-11.391,14.558h-7.691c-.318,0-.581-.371-.581-.777V1.25c0-.405.264-.777.581-.777ZM179.364,0c.318,0,.45.2.555.473l9.99,27.933c.185.541-.053,1.081-.555,1.081h-2.828c-.475,0-.713-.236-.952-.844l-1.586-4.492h-9.7L172.7,28.643a1.058,1.058,0,0,1-.951.844h-2.83c-.45,0-.713-.54-.527-1.081L178.491.473c.106-.236.264-.473.555-.473ZM157.03,5.472h-3.7V24.421h3.7c4.23,0,7.294-4.053,7.294-9.491C164.324,9.525,161.232,5.472,157.03,5.472Zm22.147,5h-.105L175.9,19.59h6.528Z" transform="translate(-76.293)" fill="#43b02a"/></g></g></svg>