<svg xmlns="http://www.w3.org/2000/svg" xmlns:xlink="http://www.w3.org/1999/xlink" width="112" height="30" viewBox="0 0 112 30"><defs><clipPath id="b"><rect width="112" height="30"/></clipPath></defs><g id="a" clip-path="url(#b)"><path d="M30.062,13.659H20.591a5.7,5.7,0,1,0,0,2.852h6.57A12.173,12.173,0,1,1,20.791,4.335a4.6,4.6,0,1,0,1.82-2.31,15.127,15.127,0,1,0,7.537,13.088A10.523,10.523,0,0,0,30.062,13.659ZM15.074,17.937a2.852,2.852,0,1,1,2.844-2.852A2.848,2.848,0,0,1,15.074,17.937ZM25.114,4.192A1.712,1.712,0,1,1,23.407,5.9,1.707,1.707,0,0,1,25.114,4.192Z" transform="translate(0 0)" fill="#347eff"/><path d="M205.219,52.874a.364.364,0,0,1,0,.258.539.539,0,0,1-.283,0,22.239,22.239,0,0,1-3.161.257h-.265a7.7,7.7,0,0,1-1.649-.155,3.911,3.911,0,0,1-1.288-.542,2.375,2.375,0,0,1-.9-1.136,4.944,4.944,0,0,1-.309-1.86V43.525a4.971,4.971,0,0,1,.309-1.86,2.349,2.349,0,0,1,.9-1.136,3.909,3.909,0,0,1,1.288-.542,7.709,7.709,0,0,1,1.483-.155h.166a22.227,22.227,0,0,1,3.426.258.54.54,0,0,1,.283,0,.364.364,0,0,1,0,.258V41.51a.361.361,0,0,1-.361.362H201.2a1.492,1.492,0,0,0-1.108.336,1.786,1.786,0,0,0-.309,1.214v1.937h4.869a.361.361,0,0,1,.361.362v1.291a.361.361,0,0,1-.361.362h-4.869V49.7a1.786,1.786,0,0,0,.309,1.369,1.492,1.492,0,0,0,1.108.336h3.658a.361.361,0,0,1,.361.362Zm10.527,0a.365.365,0,0,1,0,.258.539.539,0,0,1-.283,0,22.208,22.208,0,0,1-3.161.257h-.265a7.7,7.7,0,0,1-1.649-.155,3.938,3.938,0,0,1-1.288-.542,2.376,2.376,0,0,1-.9-1.136,4.944,4.944,0,0,1-.309-1.86V43.525a4.945,4.945,0,0,1,.309-1.86,2.376,2.376,0,0,1,.9-1.136,3.936,3.936,0,0,1,1.288-.542,7.709,7.709,0,0,1,1.483-.155h.166a22.227,22.227,0,0,1,3.426.258.54.54,0,0,1,.283,0,.364.364,0,0,1,0,.258V41.51a.361.361,0,0,1-.361.362h-3.658a1.492,1.492,0,0,0-1.108.336,1.786,1.786,0,0,0-.309,1.214v1.937h4.869a.361.361,0,0,1,.361.362v1.291a.361.361,0,0,1-.361.362H210.31V49.7a1.786,1.786,0,0,0,.309,1.214,1.492,1.492,0,0,0,1.108.336h3.658a.361.361,0,0,1,.361.362ZM226.4,41.067h-3.5V52.715a.389.389,0,0,1,0,.258.283.283,0,0,1-.232,0h-1.082a.283.283,0,0,1-.232,0,.386.386,0,0,1,0-.258V41.067h-3.607a.437.437,0,0,1-.258,0,.233.233,0,0,1,0-.207v-.775a.284.284,0,0,1,0-.232.385.385,0,0,1,.258,0H226.4q.335,0,.335.31v.775Q226.73,41.067,226.4,41.067ZM235.471,53.2a.208.208,0,0,1-.129,0h-3.529a4.5,4.5,0,0,1-2.86-.775A3.13,3.13,0,0,1,228,49.837V43.2a3.13,3.13,0,0,1,.953-2.583,4.5,4.5,0,0,1,2.86-.775h3.632a.206.206,0,0,1,.129,0,.314.314,0,0,1,0,.155v.952c0,.118-.023.159-.206.159h-3.5a5.317,5.317,0,0,0-1.159,0,1.39,1.39,0,0,0-.67.336,1.137,1.137,0,0,0-.309.568,3.984,3.984,0,0,0-.155,1.188v2.583h5.513a.182.182,0,0,1,.258.258v.672a.182.182,0,0,1-.258.258h-5.513v3.048a4.031,4.031,0,0,0,0,.878,1.137,1.137,0,0,0,.309.594,1.389,1.389,0,0,0,.67.336,5.319,5.319,0,0,0,1.159,0h3.519c.1,0,.165.023.165.206v.93A.31.31,0,0,1,235.471,53.2Zm10.123-3.41a4.351,4.351,0,0,1-.206,1.162,2.866,2.866,0,0,1-.7,1.162,3.6,3.6,0,0,1-1.365.827,6.3,6.3,0,0,1-2.19.336,15.124,15.124,0,0,1-1.675,0l-1.314-.181a.49.49,0,0,1-.283,0,.362.362,0,0,1,0-.207v-.8a.258.258,0,0,1,0-.207.334.334,0,0,1,.206,0h2.962a4.908,4.908,0,0,0,1.34-.155,2.061,2.061,0,0,0,.825-.439,1.527,1.527,0,0,0,.438-.672,2.849,2.849,0,0,0,0-.878,1.689,1.689,0,0,0,0-.62,1.734,1.734,0,0,0-.361-.542,4.473,4.473,0,0,0-.464-.542l-1.031-.672L240.029,46.3a7.218,7.218,0,0,1-1.855-1.524,2.847,2.847,0,0,1-.618-1.86,2.741,2.741,0,0,1,1.082-2.3,5.578,5.578,0,0,1,3.194-.775h3.117a.285.285,0,0,1,.309.31v.775q0,.284-.309.284h-3.091a4.241,4.241,0,0,0-2.035.362,1.422,1.422,0,0,0-.618,1.343,1.425,1.425,0,0,0,0,.594,1.885,1.885,0,0,0,.361.517,3.733,3.733,0,0,0,.618.517l.876.568,1.649.981a10.925,10.925,0,0,1,1.314.9,5.675,5.675,0,0,1,.876.878,2.766,2.766,0,0,1,.49.9A3.444,3.444,0,0,1,245.594,49.785Zm10.442-8.718h-3.5V52.715a.389.389,0,0,1,0,.258.283.283,0,0,1-.232,0h-1.082a.283.283,0,0,1-.232,0,.39.39,0,0,1,0-.258V41.067h-3.581a.437.437,0,0,1-.258,0,.233.233,0,0,1,0-.207v-.775a.284.284,0,0,1,0-.232.386.386,0,0,1,.258,0h8.711c.193,0,.28.026.28.31v.775C256.4,40.989,256.268,41.067,256.036,41.067Zm-66.99,1.581a2.572,2.572,0,0,1,2.009-.8,5.142,5.142,0,0,1,2.962.852.334.334,0,0,0,.438,0l.67-.93c0-.155.155-.336,0-.491a6.841,6.841,0,0,0-4.238-1.448l-.115,0a5.371,5.371,0,0,0-1.726.284,5.146,5.146,0,0,0-1.546.878,4.131,4.131,0,0,0-1.185,1.731,7.146,7.146,0,0,0-.438,2.583V47.89a7.247,7.247,0,0,0,.309,2.221,4.68,4.68,0,0,0,.824,1.576,4.945,4.945,0,0,0,2.447,1.576,6.756,6.756,0,0,0,1.468.155,8.1,8.1,0,0,0,3.71-.749.594.594,0,0,0,.335-.542v-6.38a.182.182,0,0,0-.258-.258h-3.735a.361.361,0,0,0-.361.362v1.291a.361.361,0,0,0,.361.362h1.494v3.409a4.42,4.42,0,0,1-1.494.232,2.572,2.572,0,0,1-1.932-.749,3.958,3.958,0,0,1-.7-2.583V45.23A4.088,4.088,0,0,1,189.046,42.647Z" transform="translate(-145.683 -31.218)" fill="#292f3a"/></g></svg>