<svg xmlns="http://www.w3.org/2000/svg" xmlns:xlink="http://www.w3.org/1999/xlink" width="87" height="30" viewBox="0 0 87 30"><defs><linearGradient id="a" x1="0.158" y1="1" x2="0.842" gradientUnits="objectBoundingBox"><stop offset="0" stop-color="#ec407a"/><stop offset="1" stop-color="#ffa000"/></linearGradient><clipPath id="c"><rect width="87" height="30"/></clipPath></defs><g id="b" clip-path="url(#c)"><path d="M104.62,28.616l5.2-12.6H104.7v-1.1h5.912v1.019l-5.19,12.6h5.162v1.1h-5.97V28.616Zm10.707,1.3a2.1,2.1,0,0,1-1.443-.609,5.136,5.136,0,0,1-1.153-1.67,13.315,13.315,0,0,1-1.04-5.421,14.861,14.861,0,0,1,.276-2.93,10.7,10.7,0,0,1,.757-2.406,5.006,5.006,0,0,1,1.138-1.628,2.006,2.006,0,0,1,2.864.015,5.116,5.116,0,0,1,1.146,1.641,10.484,10.484,0,0,1,.75,2.407,15.09,15.09,0,0,1,.269,2.9v.355a1.509,1.509,0,0,1-.015.268h-6.449a10.789,10.789,0,0,0,.94,4.246,3.992,3.992,0,0,0,.9,1.246,1.612,1.612,0,0,0,1.089.453,1.483,1.483,0,0,0,.75-.212,2.7,2.7,0,0,0,.686-.581,3.911,3.911,0,0,0,.566-.891,5.587,5.587,0,0,0,.389-1.147l.623.34a6.523,6.523,0,0,1-.46,1.458A5.024,5.024,0,0,1,117.2,28.9a3.181,3.181,0,0,1-.884.75,2,2,0,0,1-.99.269Zm2.885-8.209a12.442,12.442,0,0,0-.29-2.377,8.349,8.349,0,0,0-.637-1.855,3.85,3.85,0,0,0-.9-1.217,1.57,1.57,0,0,0-2.178,0,5.576,5.576,0,0,0-1.521,3.086,13.443,13.443,0,0,0-.276,2.364h5.8Zm5.714-5.519a2.267,2.267,0,0,0-1.733,1.175,7.648,7.648,0,0,0-1.039,3.071v9.2h-.707V14.917h.679V18.54a8.365,8.365,0,0,1,1.011-2.534,2.239,2.239,0,0,1,1.351-1.117,1.212,1.212,0,0,1,.254-.029h.184v1.33Zm4.427,13.729a2.073,2.073,0,0,1-1.435-.609,5.137,5.137,0,0,1-1.139-1.655,10.745,10.745,0,0,1-.75-2.435,15.331,15.331,0,0,1-.269-2.916,15.107,15.107,0,0,1,.276-2.944,10.963,10.963,0,0,1,.757-2.435,5.151,5.151,0,0,1,1.138-1.656,2.057,2.057,0,0,1,1.422-.609,2.035,2.035,0,0,1,1.414.609,5.306,5.306,0,0,1,1.138,1.656,13.155,13.155,0,0,1,1.04,5.379,14.981,14.981,0,0,1-.276,2.916,10.977,10.977,0,0,1-.757,2.435,5.151,5.151,0,0,1-1.138,1.656,2.061,2.061,0,0,1-1.422.609Zm-2.885-7.557a12.674,12.674,0,0,0,.226,2.449,9,9,0,0,0,.615,1.995,4.279,4.279,0,0,0,.913,1.345,1.509,1.509,0,0,0,2.234,0,4.308,4.308,0,0,0,.919-1.373,11.143,11.143,0,0,0,.849-4.5A12.634,12.634,0,0,0,131,19.827a9.029,9.029,0,0,0-.623-2.01,4.609,4.609,0,0,0-.912-1.373,1.562,1.562,0,0,0-1.11-.509,1.584,1.584,0,0,0-1.118.509,4.4,4.4,0,0,0-.912,1.387,9.763,9.763,0,0,0-.622,2.053,12.684,12.684,0,0,0-.233,2.477Zm14.186,7.274h-.707V21.427q0-5.462-1.824-5.462a1.421,1.421,0,0,0-.884.34,3.5,3.5,0,0,0-.807.962,7.478,7.478,0,0,0-.657,1.458,10.258,10.258,0,0,0-.424,1.8v9.114h-.708V8.972h.708v9.453A7.511,7.511,0,0,1,135.6,15.68a2.227,2.227,0,0,1,1.718-1.019,1.406,1.406,0,0,1,1.047.453,3.453,3.453,0,0,1,.728,1.3,9.764,9.764,0,0,1,.425,2.052,24.667,24.667,0,0,1,.134,2.7v8.464Zm5.262.283a2.1,2.1,0,0,1-1.443-.609,5.14,5.14,0,0,1-1.152-1.67,13.311,13.311,0,0,1-1.04-5.421,14.851,14.851,0,0,1,.276-2.93,10.681,10.681,0,0,1,.756-2.406,5.006,5.006,0,0,1,1.138-1.628,2.006,2.006,0,0,1,2.865.015,5.123,5.123,0,0,1,1.145,1.641,10.478,10.478,0,0,1,.75,2.407,15.09,15.09,0,0,1,.269,2.9v.355a1.487,1.487,0,0,1-.014.268h-6.45a10.789,10.789,0,0,0,.941,4.246,4,4,0,0,0,.9,1.246,1.612,1.612,0,0,0,1.089.453,1.483,1.483,0,0,0,.75-.212,2.692,2.692,0,0,0,.686-.581,3.907,3.907,0,0,0,.566-.891,5.588,5.588,0,0,0,.389-1.147l.622.34a6.5,6.5,0,0,1-.459,1.458,5,5,0,0,1-.708,1.146,3.164,3.164,0,0,1-.884.75,2,2,0,0,1-.99.269Zm2.885-8.209a12.442,12.442,0,0,0-.29-2.377,8.366,8.366,0,0,0-.636-1.855,3.848,3.848,0,0,0-.9-1.217,1.57,1.57,0,0,0-2.178,0,5.577,5.577,0,0,0-1.52,3.086A13.442,13.442,0,0,0,142,21.71h5.8Zm2.234,7.927V14.917h.708V29.636h-.708Zm0-18.06v-2.6h.708v2.6Zm5.9,18.287a1.941,1.941,0,0,1-1.4-.637,5.42,5.42,0,0,1-1.1-1.7,11.619,11.619,0,0,1-.722-2.42,14.766,14.766,0,0,1-.262-2.8,16.4,16.4,0,0,1,.248-2.887,11.332,11.332,0,0,1,.7-2.449,5.227,5.227,0,0,1,1.082-1.685,1.943,1.943,0,0,1,1.393-.622,2.044,2.044,0,0,1,1.676,1,9.564,9.564,0,0,1,1.209,2.449v-3.2h.65v15a10.933,10.933,0,0,1-.283,2.633,6.455,6.455,0,0,1-.756,1.883,3.435,3.435,0,0,1-1.1,1.132,2.519,2.519,0,0,1-1.322.382,2.646,2.646,0,0,1-1.146-.241,2.767,2.767,0,0,1-.9-.679,4.593,4.593,0,0,1-.693-1.076,9.539,9.539,0,0,1-.531-1.4l.481-.651a4.763,4.763,0,0,0,1.188,2.194,2.325,2.325,0,0,0,1.6.693,1.989,1.989,0,0,0,1.068-.311,2.759,2.759,0,0,0,.877-.92,5.257,5.257,0,0,0,.594-1.515,9.123,9.123,0,0,0,.219-2.123V26.692A6.4,6.4,0,0,1,157.5,29a2.115,2.115,0,0,1-1.57.863Zm.171-1.218a1.456,1.456,0,0,0,.911-.353,3.694,3.694,0,0,0,.807-.921,5.706,5.706,0,0,0,.594-1.273,6.041,6.041,0,0,0,.289-1.416V19.841a7.572,7.572,0,0,0-1.1-2.8,3.36,3.36,0,0,0-.778-.807,1.442,1.442,0,0,0-.842-.3,1.583,1.583,0,0,0-1.188.566,4.708,4.708,0,0,0-.884,1.472,10,10,0,0,0-.551,2.052,14.015,14.015,0,0,0-.191,2.307,12.266,12.266,0,0,0,.226,2.407,9.3,9.3,0,0,0,.622,2.01,4.373,4.373,0,0,0,.934,1.387,1.646,1.646,0,0,0,1.145.509Zm11.526.991h-.707V21.427q0-5.462-1.824-5.462a1.422,1.422,0,0,0-.884.34,3.481,3.481,0,0,0-.806.962,7.457,7.457,0,0,0-.657,1.458,10.232,10.232,0,0,0-.425,1.8v9.114h-.707V8.972h.708v9.453a7.511,7.511,0,0,1,1.251-2.745,2.228,2.228,0,0,1,1.718-1.019,1.407,1.407,0,0,1,1.047.453,3.461,3.461,0,0,1,.728,1.3,9.721,9.721,0,0,1,.424,2.052,24.476,24.476,0,0,1,.135,2.7v8.464Zm5.417-.708q-.057.057-.191.213a1.737,1.737,0,0,1-.34.3,2.826,2.826,0,0,1-.459.254,1.332,1.332,0,0,1-.551.114,1.01,1.01,0,0,1-.559-.17,1.471,1.471,0,0,1-.459-.509,2.978,2.978,0,0,1-.312-.821,4.988,4.988,0,0,1-.113-1.133v-11.1h-1.032V14.915h1.032V9.878h.707v5.037h1.711v1.161h-1.711V26.833a2.184,2.184,0,0,0,.283,1.231.787.787,0,0,0,.636.411,1.071,1.071,0,0,0,.757-.3q.319-.3.39-.381l.212,1.131Z" transform="translate(-87.046 -5.947)"/><path d="M1.025,0,2.05,4.385H0ZM0,5.078H2.05V24.7H0ZM0,25.391H2.05v2.385H0ZM3.647,4.374l1.42-2.847,6.526,13.11L5.034,28.118l-1.417-2.7,5.152-10.76L3.647,4.375Z" fill="url(#a)"/></g></svg>